<?xml version="1.0" encoding="iso-8859-1"?>
<!-- Generator: Adobe Illustrator 19.0.0, SVG Export Plug-In . SVG Version: 6.00 Build 0)  -->
<svg version="1.1" id="Layer_1" xmlns="http://www.w3.org/2000/svg" xmlns:xlink="http://www.w3.org/1999/xlink" x="0px" y="0px"
	 viewBox="0 0 512 512" style="enable-background:new 0 0 512 512;" xml:space="preserve">
<circle style="fill:#FE5022;" cx="256" cy="256" r="247.916"/>
<path style="fill:#FF3501;" d="M256,8.084c-10.96,0-21.752,0.72-32.337,2.099C345.304,26.029,439.242,130.04,439.242,256
	s-93.939,229.971-215.579,245.817c10.585,1.379,21.377,2.099,32.337,2.099c136.921,0,247.916-110.996,247.916-247.916
	S392.921,8.084,256,8.084z"/>
<g>
	<path style="fill:#ECE5DD;" d="M320.674,127.192c-18.128,0-32.876-14.748-32.876-32.876s14.748-32.876,32.876-32.876
		s32.876,14.748,32.876,32.876S338.802,127.192,320.674,127.192z"/>
	<path style="fill:#ECE5DD;" d="M256,450.56c-93.016,0-168.691-63.102-168.691-140.665S162.984,169.229,256,169.229
		s168.691,63.102,168.691,140.665S349.016,450.56,256,450.56z"/>
	<path style="fill:#ECE5DD;" d="M419.113,277.767c-7.617-26.778-24.529-50.946-48.903-69.89l-7.931-6.164l7.295-6.906
		c10.079-9.544,23.337-14.798,37.331-14.798c30.015,0,54.434,24.419,54.434,54.434c0,20.386-11.799,39.49-30.058,48.669
		l-9.314,4.683L419.113,277.767z"/>
	<path style="fill:#ECE5DD;" d="M80.718,283.111c-18.258-9.18-30.057-28.284-30.057-48.669c0-30.015,24.419-54.434,54.434-54.434
		c13.996,0,27.256,5.255,37.333,14.797l7.294,6.906l-7.931,6.163c-24.376,18.944-41.287,43.113-48.904,69.891l-2.853,10.028
		L80.718,283.111z"/>
</g>
<g>
	<path style="fill:#FE5022;" d="M180.547,310.434c-18.128,0-32.876-14.748-32.876-32.876s14.748-32.876,32.876-32.876
		s32.876,14.748,32.876,32.876S198.675,310.434,180.547,310.434z"/>
	<path style="fill:#FE5022;" d="M331.453,310.434c-18.128,0-32.876-14.748-32.876-32.876s14.748-32.876,32.876-32.876
		s32.876,14.748,32.876,32.876S349.581,310.434,331.453,310.434z"/>
	<path style="fill:#FE5022;" d="M340.053,367.161c-21.997,18.331-51.848,28.426-84.053,28.426s-62.057-10.096-84.053-28.426
		c-3.43-2.856-8.526-2.395-11.386,1.035c-2.859,3.43-2.395,8.527,1.035,11.386c24.897,20.748,58.423,32.174,94.404,32.174
		s69.507-11.426,94.404-32.173c3.43-2.859,3.893-7.956,1.035-11.386C348.58,364.766,343.482,364.304,340.053,367.161z"/>
</g>
<path style="fill:#ECE5DD;" d="M264.084,180.547v-69.626l17.626-5.876c4.714,17.095,20.391,29.691,38.964,29.691
	c22.289,0,40.421-18.132,40.421-40.421s-18.132-40.421-40.421-40.421c-20.258,0-37.08,14.981-39.977,34.446l-27.253,9.084
	c-3.301,1.101-5.527,4.19-5.527,7.669v75.453H264.084z M320.674,70.063c13.373,0,24.253,10.879,24.253,24.253
	s-10.879,24.253-24.253,24.253c-13.373,0-24.253-10.879-24.253-24.253S307.3,70.063,320.674,70.063z"/>
<path d="M437.019,74.981C388.667,26.628,324.379,0,256,0S123.333,26.628,74.981,74.981S0,187.62,0,256
	s26.628,132.667,74.981,181.019S187.62,512,256,512s132.667-26.628,181.019-74.981S512,324.379,512,256
	S485.372,123.333,437.019,74.981z M256,495.832C123.756,495.832,16.168,388.244,16.168,256S123.756,16.168,256,16.168
	S495.832,123.756,495.832,256S388.244,495.832,256,495.832z"/>
<path d="M340.053,367.161c-21.997,18.331-51.848,28.426-84.053,28.426s-62.057-10.096-84.053-28.426
	c-3.43-2.856-8.526-2.395-11.386,1.035c-2.859,3.43-2.395,8.527,1.035,11.386c24.897,20.748,58.423,32.174,94.404,32.174
	s69.507-11.426,94.404-32.173c3.43-2.859,3.893-7.956,1.035-11.386C348.58,364.766,343.482,364.304,340.053,367.161z"/>
<path d="M468.884,234.442c0-34.176-27.803-61.979-61.979-61.979c-16.932,0-33.183,7.059-44.801,19.173
	c-27.526-17.51-61.328-28.389-98.021-29.79v-50.925l17.626-5.876c5.038,18.272,22.602,31.404,42.84,29.508
	c19.499-1.826,35.068-17.794,36.443-37.331c1.66-23.596-17.068-43.328-40.319-43.328c-20.258,0-37.08,14.981-39.977,34.446
	l-27.253,9.084c-3.301,1.101-5.527,4.19-5.527,7.669v56.751c-36.694,1.4-70.495,12.279-98.023,29.791
	c-11.616-12.114-27.86-19.174-44.798-19.174c-34.176,0-61.979,27.803-61.979,61.979c0,25.056,15.304,47.605,37.991,57.155
	c-0.882,5.997-1.343,12.103-1.343,18.297c0,81.724,79.059,148.211,176.236,148.211c49.571,0,94.424-17.305,126.476-45.103
	c3.495-3.03,3.675-8.396,0.404-11.666l-0.101-0.101c-2.955-2.955-7.689-3.128-10.846-0.391
	c-29.18,25.299-70.361,41.094-115.933,41.094c-88.261,0-160.067-59.234-160.067-132.042S167.739,177.853,256,177.853
	s160.067,59.234,160.067,132.042c0,22.907-7.109,44.47-19.602,63.268c-2.085,3.137-1.617,7.319,1.047,9.982
	c0.039,0.039,0.077,0.077,0.115,0.115c3.58,3.58,9.516,2.942,12.317-1.274c14.194-21.352,22.291-45.941,22.291-72.092
	c0-6.195-0.461-12.3-1.343-18.297C453.58,282.048,468.884,259.499,468.884,234.442z M320.674,70.063
	c13.373,0,24.253,10.879,24.253,24.253s-10.879,24.253-24.253,24.253c-13.373,0-24.253-10.879-24.253-24.253
	S307.3,70.063,320.674,70.063z M84.592,275.408c-15.228-7.656-25.308-23.483-25.308-40.965c0-25.26,20.55-45.811,45.811-45.811
	c11.895,0,22.975,4.455,31.404,12.436C111.265,220.678,92.844,246.398,84.592,275.408z M427.408,275.408
	c-8.252-29.008-26.671-54.728-51.905-74.339c8.43-7.981,19.513-12.437,31.402-12.437c25.26,0,45.811,20.55,45.811,45.811
	C452.716,251.924,442.636,267.751,427.408,275.408z"/>
<path d="M220.968,277.558c0-22.289-18.132-40.421-40.421-40.421s-40.421,18.132-40.421,40.421c0,22.289,18.132,40.421,40.421,40.421
	S220.968,299.847,220.968,277.558z M156.295,277.558c0-13.373,10.879-24.253,24.253-24.253c13.373,0,24.253,10.879,24.253,24.253
	c0,13.373-10.879,24.253-24.253,24.253C167.174,301.811,156.295,290.931,156.295,277.558z"/>
<path d="M331.453,237.137c-22.289,0-40.421,18.132-40.421,40.421c0,22.289,18.132,40.421,40.421,40.421
	c22.289,0,40.421-18.132,40.421-40.421C371.874,255.269,353.741,237.137,331.453,237.137z M331.453,301.811
	c-13.373,0-24.253-10.879-24.253-24.253c0-13.373,10.879-24.253,24.253-24.253c13.373,0,24.253,10.879,24.253,24.253
	C355.705,290.931,344.826,301.811,331.453,301.811z"/>
<g>
</g>
<g>
</g>
<g>
</g>
<g>
</g>
<g>
</g>
<g>
</g>
<g>
</g>
<g>
</g>
<g>
</g>
<g>
</g>
<g>
</g>
<g>
</g>
<g>
</g>
<g>
</g>
<g>
</g>
</svg>
