<?xml version="1.0" encoding="iso-8859-1"?>
<!-- Generator: Adobe Illustrator 20.1.0, SVG Export Plug-In . SVG Version: 6.00 Build 0)  -->
<svg xmlns="http://www.w3.org/2000/svg" xmlns:xlink="http://www.w3.org/1999/xlink" version="1.1" id="&#1057;&#1083;&#1086;&#1081;_1" x="0px" y="0px" viewBox="0 0 64 64" style="enable-background:new 0 0 64 64;" xml:space="preserve">
<linearGradient id="SVGID_1__53013" gradientUnits="userSpaceOnUse" x1="33" y1="9.5" x2="33" y2="51.8034" spreadMethod="reflect">
	<stop offset="0" style="stop-color:#6DC7FF"/>
	<stop offset="1" style="stop-color:#E6ABFF"/>
</linearGradient>
<path style="fill:url(#SVGID_1__53013);" d="M25,51.625V44H14V10h38v25.747L44.441,44H32.423L25,51.625z M16,42h11v4.703L31.579,42h11.981  L50,34.97V12H16V42z"/>
<linearGradient id="SVGID_2__53013" gradientUnits="userSpaceOnUse" x1="32" y1="5.75" x2="32" y2="58.7668" spreadMethod="reflect">
	<stop offset="0" style="stop-color:#1A6DFF"/>
	<stop offset="1" style="stop-color:#C822FF"/>
</linearGradient>
<path style="fill:url(#SVGID_2__53013);" d="M55.001,6H12.057c-0.828,0-1.559,0.498-1.861,1.268l-3.057,7.773  C7.047,15.274,7,15.521,7,15.771V50c0,1.103,0.897,2,2.001,2H19v4c0,1.103,0.897,2,2.001,2h5.353c0.51,0,0.996-0.192,1.371-0.543  L33.522,52h8.933c0.534,0,1.055-0.219,1.43-0.602l12.547-12.813C56.798,38.21,57,37.713,57,37.188V8C57,6.897,56.104,6,55.001,6z   M55,37.189L42.455,50h-8.933c-0.51,0-0.996,0.192-1.371,0.543L26.354,56H21v-4c0-1.103-0.896-2-1.999-2H9V15.771L12.057,8H55  V37.189z"/>
<linearGradient id="SVGID_3__53013" gradientUnits="userSpaceOnUse" x1="41.5" y1="5.75" x2="41.5" y2="58.7668" spreadMethod="reflect">
	<stop offset="0" style="stop-color:#1A6DFF"/>
	<stop offset="1" style="stop-color:#C822FF"/>
</linearGradient>
<path style="fill:url(#SVGID_3__53013);" d="M45,19h-7v15h7V19z M43,32h-3V21h3V32z"/>
<linearGradient id="SVGID_4__53013" gradientUnits="userSpaceOnUse" x1="29.5" y1="5.75" x2="29.5" y2="58.7668" spreadMethod="reflect">
	<stop offset="0" style="stop-color:#1A6DFF"/>
	<stop offset="1" style="stop-color:#C822FF"/>
</linearGradient>
<path style="fill:url(#SVGID_4__53013);" d="M33,19h-7v15h7V19z M31,32h-3V21h3V32z"/>
<linearGradient id="SVGID_5__53013" gradientUnits="userSpaceOnUse" x1="29.5" y1="20.875" x2="29.5" y2="32.6787" spreadMethod="reflect">
	<stop offset="0" style="stop-color:#6DC7FF"/>
	<stop offset="1" style="stop-color:#E6ABFF"/>
</linearGradient>
<rect x="28" y="21" style="fill:url(#SVGID_5__53013);" width="3" height="11"/>
<linearGradient id="SVGID_6__53013" gradientUnits="userSpaceOnUse" x1="41.5" y1="20.875" x2="41.5" y2="32.6787" spreadMethod="reflect">
	<stop offset="0" style="stop-color:#6DC7FF"/>
	<stop offset="1" style="stop-color:#E6ABFF"/>
</linearGradient>
<rect x="40" y="21" style="fill:url(#SVGID_6__53013);" width="3" height="11"/>
</svg>
